# xmcd
#
# Track frame offsets:
#	150
#	22417
#	39040
#	57249
#	78517
#	94047
#	114171
#	132433
#	150198
#	171793
#	197418
#	210179
#	224484
#
# Disc length: 3078 seconds
#
# Revision: 1
# Processed by: cddbd v1.5.2PL0 Copyright (c) Steve Scherf et al.
# Submitted via: audiograbber 1.83.01
#
DISCID=a00c040d
DTITLE=Gait Klein Kromhof - Gait
DYEAR=2014
DGENRE=Blues
TTITLE0=Another Man Done Gone
TTITLE1=Nobody's Fault But Mine
TTITLE2=Easy
TTITLE3=The Real Thing
TTITLE4=Love Is My Religion
TTITLE5=Quiet Of The Night
TTITLE6=The Cuckoo
TTITLE7=You're Gonna Need My Help
TTITLE8=Sergeant Oliver
TTITLE9=Leaving At Daybreak
TTITLE10=Walk On In
TTITLE11=Who Walks In When I Walk Out?
TTITLE12=Gait's Blues
EXTD=
EXTT0=
EXTT1=
EXTT2=
EXTT3=
EXTT4=
EXTT5=
EXTT6=
EXTT7=
EXTT8=
EXTT9=
EXTT10=
EXTT11=
EXTT12=
PLAYORDER=
